<svg xmlns="http://www.w3.org/2000/svg" xmlns:osb="http://www.openswatchbook.org/uri/2009/osb" xmlns:svg="http://www.w3.org/2000/svg" id="svg7384" width="16" height="16" enable-background="new" version="1.1"><metadata id="metadata90"/><title id="title8473">Paper Symbolic Icon Theme</title><defs id="defs7386"><linearGradient id="linearGradient5606" osb:paint="solid"><stop id="stop5608" offset="0" stop-color="#000" stop-opacity="1"/></linearGradient><filter id="filter7554" color-interpolation-filters="sRGB"><feBlend id="feBlend7556" in2="BackgroundImage" mode="darken"/></filter></defs><g id="layer10" display="inline" filter="url(#filter7554)" transform="translate(-365.0002,159.0033)"><path id="path6536" fill="#bebebe" fill-opacity="1" stroke="none" d="m 367.0002,-157 c -1,0 -1,1 -1,1 l 0,9 c 0,0 0,1 1,1 l 12,0 c 0,0 1,0 1,-1 l 0,-9 c 0,0 0,-1 -1,-1 z m 1,2 10,0 0,7 -10,-0.024 z m -3,10 2e-4,0.99664 16,0 -2e-4,-0.99664 c 0,-1 -1,-1 -1,-1 l -14.02177,0 c 0,0 -0.97823,0 -0.97823,1 z"/></g></svg>