<svg xmlns="http://www.w3.org/2000/svg" viewBox="0 0 64 64"><g transform="matrix(1 0 0 1 0 -988.36)"><rect width="46" height="31" x="9" y="1001.36" fill="#424242" fill-opacity="1" fill-rule="nonzero" stroke="none" opacity="1" rx="2"/><rect width="40" height="25" x="12" y="1004.36" fill="#cecece" fill-opacity="1" stroke="none"/><path fill="#424242" fill-opacity="1" stroke="none" d="m 4 1041.36 56 0 0 0.667 c 0 0.739 -1.189 1.333 -2.667 1.333 l -50.667 0 c -1.477 0 -2.667 -0.595 -2.667 -1.333 z"/><path fill="#b5b5b5" fill-opacity="1" stroke="none" d="m 9 1032.36 -5 9 56 0 -5 -9 z"/><path fill="#757575" fill-opacity="1" stroke="none" d="m 12 1033.36 -2 5 44 0 -2 -5 z"/><path fill="#757575" fill-opacity="1" stroke="none" d="m 26 1039.36 0 1 12 0 0 -1 z"/><rect width="5" height="31" x="43" y="1001.36" fill="#fff" fill-opacity="1" fill-rule="nonzero" stroke="none" opacity=".4"/></g></svg>