<svg xmlns="http://www.w3.org/2000/svg" xmlns:svg="http://www.w3.org/2000/svg" id="svg20" width="32" height="32" version="1.1" viewBox="0 0 32 32"><metadata id="metadata26"/><defs id="defs24"><filter id="filter4415" width="1.048" height="1.048" x="-.024" y="-.024" color-interpolation-filters="sRGB"><feGaussianBlur id="feGaussianBlur4417" stdDeviation="4.48"/></filter></defs><rect id="rect1048" width="448" height="448" x="-256" y="-688" fill="#000" fill-opacity="1" stroke="#000" stroke-dasharray="none" stroke-miterlimit="4" stroke-opacity="1" stroke-width="8" display="inline" enable-background="new" filter="url(#filter4415)" opacity=".1" rx="36" ry="36" transform="matrix(0,-0.0625,-0.0625,0,-13,14.328)"/><rect id="rect4255" width="28" height="28" x="-30" y="-30" fill="#15a6f0" fill-opacity="1" stroke="none" display="inline" enable-background="new" rx="3" ry="3" transform="matrix(0,-1,-1,0,0,0)"/><path id="rect4430" fill="#fff" fill-opacity="1" stroke="none" d="m 5.0000001,2.0000001 c -1.662,0 -3,1.338 -3,3 v 0.9999996 c 0,-1.6619996 1.338,-2.9999996 3,-2.9999996 H 27 c 1.662,0 3,1.338 3,2.9999996 V 5.0000001 c 0,-1.662 -1.338,-3 -3,-3 z" display="inline" enable-background="new" opacity=".2"/><path id="path1063" fill="#fff" stroke-width="1" d="m 11,12.00024 h 12 v -2 L 11.0013,9.9994997 C 10,9.9991097 9.0000001,11.00051 9.0000001,12.0005 v 8.00001 h -1 v 2 H 17 v -2 h -6 z m 12,2 h -3 c -0.5,0 -1,0.5 -1,1 v 6.00002 c 0,0.49998 0.5,0.99998 1,0.99998 h 3 c 0.5,0 1,-0.5 1,-0.99998 v -6.00002 c 0,-0.5 -0.5,-1 -1,-1 z m 0,6.00002 h -3 v -5.00002 h 3 z" display="inline" enable-background="new"/></svg>