<svg xmlns="http://www.w3.org/2000/svg" xmlns:osb="http://www.openswatchbook.org/uri/2009/osb" xmlns:svg="http://www.w3.org/2000/svg" id="svg7384" width="18" height="18" enable-background="new" version="1.1"><metadata id="metadata90"/><title id="title8473">Paper Symbolic Icon Theme</title><defs id="defs7386"><linearGradient id="linearGradient5606" osb:paint="solid"><stop id="stop5608" offset="0" stop-color="#000" stop-opacity="1"/></linearGradient><filter id="filter7554" color-interpolation-filters="sRGB"><feBlend id="feBlend7556" in2="BackgroundImage" mode="darken"/></filter></defs><g id="layer12" display="inline" transform="translate(-546.00038,21.010089)"><g id="g4946" transform="rotate(-180,282.00019,-2.0017245)"><path id="path4948" fill="#555" fill-opacity="1" fill-rule="nonzero" stroke="none" stroke-width="1" d="m 202.9998,477.99664 c 0,0 -1,0 -1,1 L 202,482 l -2e-4,8.99664 c 0,1 1,1 1,1 h 10 c 0,0 1,0 1,-1 L 214,487 l -2.0002,-0.003 -2e-4,2.99664 -8,-3.6e-4 2e-4,-9.99682 8,1.8e-4 V 482.997 L 214,483 l -2e-4,-4.00336 c 0,-1 -1,-1 -1,-1 z" color="#555" display="inline" enable-background="accumulate" overflow="visible" transform="translate(-200,-477)" visibility="visible" style="marker:none"/></g><path id="path4952" fill="#555" fill-opacity="1" stroke="none" d="m 553.00038,-9.0034489 v -2.0000001 h -4 v -2 h 4 v -2 l 4.5,3 z"/></g></svg>